<svg xmlns="http://www.w3.org/2000/svg" xmlns:xlink="http://www.w3.org/1999/xlink" width="500" zoomAndPan="magnify" viewBox="0 0 375 374.999991" height="500" preserveAspectRatio="xMidYMid meet" version="1.0"><defs><clipPath id="05f3c5c43b"><path d="M 112.5 60 L 262.5 60 L 262.5 322 L 112.5 322 Z M 112.5 60 " clip-rule="nonzero"/></clipPath><clipPath id="e872182ebb"><path d="M 112.5 138.257812 L 112.5 243.773438 C 112.5 247.136719 113.835938 250.359375 116.210938 252.734375 L 183.789062 320.3125 C 185.839844 322.363281 189.160156 322.363281 191.210938 320.3125 L 258.789062 252.734375 C 261.164062 250.359375 262.5 247.136719 262.5 243.773438 L 262.5 138.257812 C 262.5 134.894531 261.164062 131.671875 258.789062 129.296875 L 191.210938 61.71875 C 189.160156 59.667969 185.839844 59.667969 183.789062 61.71875 L 116.210938 129.296875 C 113.835938 131.671875 112.5 134.894531 112.5 138.257812 Z M 112.5 138.257812 " clip-rule="nonzero"/></clipPath><clipPath id="7c5330cedd"><path d="M 179.351562 250.488281 L 195.664062 250.488281 L 195.664062 258.320312 L 179.351562 258.320312 Z M 179.351562 250.488281 " clip-rule="nonzero"/></clipPath><clipPath id="cc21cec800"><path d="M 184.789062 257.851562 C 185.621094 258.132812 186.574219 258.320312 187.503906 258.320312 C 188.4375 258.320312 189.332031 258.160156 190.160156 257.875 C 190.175781 257.867188 190.195312 257.867188 190.210938 257.859375 C 193.316406 256.722656 195.601562 253.722656 195.648438 250.488281 L 179.351562 250.488281 C 179.398438 253.738281 181.648438 256.738281 184.789062 257.851562 Z M 184.789062 257.851562 " clip-rule="nonzero"/></clipPath><clipPath id="1f24e8aaaf"><path d="M 150.960938 135.820312 L 223.710938 135.820312 L 223.710938 246.820312 L 150.960938 246.820312 Z M 150.960938 135.820312 " clip-rule="nonzero"/></clipPath></defs><g clip-path="url(#05f3c5c43b)"><g clip-path="url(#e872182ebb)"><path fill="#ffbd59" d="M 112.5 324.023438 L 112.5 58.007812 L 262.5 58.007812 L 262.5 324.023438 Z M 112.5 324.023438 " fill-opacity="1" fill-rule="nonzero"/><path stroke-linecap="butt" transform="matrix(0, -0.75, 0.75, 0, 112.499997, 324.023417)" fill="none" stroke-linejoin="miter" d="M 247.687489 0.00000385 L 106.99998 0.00000385 C 102.515605 0.00000385 98.218729 1.781254 95.052062 4.947921 L 4.94789 95.052093 C 2.213515 97.786469 2.213515 102.213552 4.94789 104.947927 L 95.052062 195.0521 C 98.218729 198.218767 102.515605 200.000017 106.99998 200.000017 L 247.687489 200.000017 C 252.171864 200.000017 256.46874 198.218767 259.635407 195.0521 L 349.739579 104.947927 C 352.473954 102.213552 352.473954 97.786469 349.739579 95.052093 L 259.635407 4.947921 C 256.46874 1.781254 252.171864 0.00000385 247.687489 0.00000385 Z M 247.687489 0.00000385 " stroke="#ffcf86" stroke-width="14" stroke-opacity="1" stroke-miterlimit="4"/></g></g><g clip-path="url(#7c5330cedd)"><g clip-path="url(#cc21cec800)"><path fill="#ffedd0" d="M 179.351562 250.488281 L 195.632812 250.488281 L 195.632812 258.320312 L 179.351562 258.320312 Z M 179.351562 250.488281 " fill-opacity="1" fill-rule="nonzero"/></g></g><g clip-path="url(#1f24e8aaaf)"><path fill="#ffedd0" d="M 203.410156 231.164062 L 171.578125 231.164062 C 170.34375 231.164062 169.371094 230.191406 169.371094 228.984375 C 169.371094 222.3125 168.007812 216.402344 166.035156 211.042969 C 164.015625 205.554688 161.363281 200.589844 158.894531 195.941406 C 154.71875 188.117188 150.960938 181.105469 150.960938 173.511719 L 150.960938 173.09375 C 151.066406 161.40625 155.6875 152.109375 162.542969 145.699219 C 169.371094 139.292969 178.460938 135.824219 187.546875 135.824219 C 187.625 135.824219 187.703125 135.824219 187.757812 135.851562 L 187.886719 135.851562 C 197.449219 135.929688 206.984375 139.894531 213.863281 147.066406 C 220.007812 153.5 224.027344 162.457031 224.027344 173.511719 C 224.027344 181.105469 220.273438 188.117188 216.121094 195.941406 C 211.183594 205.1875 205.617188 215.589844 205.617188 228.984375 C 205.617188 230.191406 204.644531 231.164062 203.410156 231.164062 Z M 172.972656 239.09375 C 171.761719 239.09375 170.765625 238.121094 170.765625 236.886719 C 170.765625 235.679688 171.761719 234.683594 172.972656 234.683594 L 202.019531 234.683594 C 203.226562 234.683594 204.226562 235.679688 204.226562 236.886719 C 204.226562 238.121094 203.226562 239.09375 202.019531 239.09375 Z M 183.082031 195.074219 L 191.90625 195.074219 L 191.90625 192.003906 C 191.90625 190.769531 192.878906 189.796875 194.085938 189.796875 C 195.320312 189.796875 196.292969 190.769531 196.292969 192.003906 L 196.292969 226.777344 L 201.257812 226.777344 C 201.808594 213.410156 207.324219 203.085938 212.234375 193.867188 C 216.121094 186.59375 219.640625 180.027344 219.640625 173.511719 C 219.640625 163.691406 216.097656 155.757812 210.6875 150.113281 C 204.644531 143.78125 196.265625 140.316406 187.835938 140.238281 L 187.546875 140.238281 C 179.5625 140.238281 171.550781 143.285156 165.511719 148.929688 C 159.496094 154.550781 155.453125 162.769531 155.347656 173.121094 L 155.347656 173.511719 C 155.347656 180.027344 158.867188 186.59375 162.753906 193.867188 C 165.328125 198.699219 168.058594 203.820312 170.160156 209.519531 C 172.078125 214.746094 173.46875 220.421875 173.730469 226.777344 L 178.695312 226.777344 L 178.695312 192.003906 C 178.695312 190.769531 179.667969 189.796875 180.902344 189.796875 C 182.109375 189.796875 183.082031 190.769531 183.082031 192.003906 Z M 191.90625 226.777344 L 191.90625 199.488281 L 183.082031 199.488281 L 183.082031 226.777344 Z M 175.542969 247.027344 C 174.308594 247.027344 173.339844 246.027344 173.339844 244.820312 C 173.339844 243.613281 174.308594 242.613281 175.542969 242.613281 L 199.207031 242.613281 C 200.441406 242.613281 201.414062 243.613281 201.414062 244.820312 C 201.414062 246.027344 200.441406 247.027344 199.207031 247.027344 Z M 175.542969 247.027344 " fill-opacity="1" fill-rule="nonzero"/></g></svg>